<svg id="Layer_1" data-name="Layer 1" xmlns="http://www.w3.org/2000/svg" xmlns:xlink="http://www.w3.org/1999/xlink" viewBox="0 0 78 64"><defs><style>.cls-1{fill:#fff;}.cls-2{fill:#66bb6a;}.cls-3,.cls-4{fill:none;stroke:#fff;stroke-width:2px;}.cls-3{stroke-linecap:round;stroke-linejoin:round;}.cls-5{mask:url(#mask);}</style><mask id="mask" x="0" y="0" width="77.63" height="64" maskUnits="userSpaceOnUse"><g id="mask-2"><polygon id="path-1" class="cls-1" points="0 64 77.6 64 77.6 0 0 0 0 64"/></g></mask></defs><title>icon 1</title><g id="_001" data-name="001"><g id="Icon1"><g id="Group-38"><path id="Fill-1" class="cls-2" d="M75.7,63H39.5V49A10.4,10.4,0,0,1,47,39.1l10.6-3.2,10.7,3.2A10.3,10.3,0,0,1,75.7,49Z"/><path id="Stroke-3" class="cls-3" d="M75.7,63H39.5V49A10.4,10.4,0,0,1,47,39.1l10.6-3.2,10.7,3.2A10.3,10.3,0,0,1,75.7,49Z"/><polygon id="Fill-5" class="cls-2" points="67.1 21.4 64.8 12.3 50.5 12.3 48.1 21.4 38.6 26.8 76.6 26.8 67.1 21.4"/><polygon id="Stroke-7" class="cls-3" points="67.1 21.4 64.8 12.3 50.5 12.3 48.1 21.4 38.6 26.8 76.6 26.8 67.1 21.4"/><line id="Stroke-9" class="cls-4" x1="67.1" y1="21.4" x2="48.1" y2="21.4"/><path id="Fill-11" class="cls-2" d="M57.6,43.1h0a9,9,0,0,1-9-9.1V26.8H66.7V34a9.1,9.1,0,0,1-9.1,9.1"/><path id="Stroke-13" class="cls-3" d="M57.6,43.1h0a9,9,0,0,1-9-9.1V26.8H66.7V34A9.1,9.1,0,0,1,57.6,43.1Z"/><path id="Fill-15" class="cls-2" d="M46.4,63H2.1V45.9a12.8,12.8,0,0,1,9.1-12.2l13-3.9,13.1,3.9a12.8,12.8,0,0,1,9.1,12.2Z"/><path id="Stroke-17" class="cls-3" d="M46.4,63H2.1V45.9a12.8,12.8,0,0,1,9.1-12.2l13-3.9,13.1,3.9a12.8,12.8,0,0,1,9.1,12.2Z"/><polygon id="Fill-19" class="cls-2" points="35.9 12.1 33 1 15.5 1 12.6 12.1 1 18.7 47.5 18.7 35.9 12.1"/><polygon id="Stroke-21" class="cls-3" points="35.9 12.1 33 1 15.5 1 12.6 12.1 1 18.7 47.5 18.7 35.9 12.1"/><line id="Stroke-23" class="cls-4" x1="35.9" y1="12.1" x2="12.6" y2="12.1"/><path id="Fill-25" class="cls-2" d="M24.2,38.6h0a11,11,0,0,1-11-11V18.7H35.3v8.9a11,11,0,0,1-11.1,11"/><path id="Stroke-27" class="cls-3" d="M24.2,38.6h0a11,11,0,0,1-11-11V18.7H35.3v8.9A11,11,0,0,1,24.2,38.6Z"/><g class="cls-5"><polygon id="Stroke-29" class="cls-3" points="8.8 63 39.8 63 39.8 45.3 8.8 45.3 8.8 63"/></g><g class="cls-5"><line id="Stroke-31" class="cls-3" x1="11" y1="45.3" x2="11" y2="34.2"/></g><g class="cls-5"><line id="Stroke-32" class="cls-3" x1="37.5" y1="45.3" x2="37.5" y2="34.2"/></g><g class="cls-5"><path id="Fill-33" class="cls-1" d="M35.3,51.9a2.2,2.2,0,0,1-4.4,0,2.2,2.2,0,0,1,4.4,0"/></g><g class="cls-5"><path id="Fill-34" class="cls-1" d="M17.6,51.9a2.2,2.2,0,0,1-4.4,0,2.2,2.2,0,0,1,4.4,0"/></g><g class="cls-5"><g id="Group-37"><path id="Fill-35" class="cls-2" d="M19,29a5.8,5.8,0,0,0,11,0"/><path id="Stroke-36" class="cls-3" d="M19,29a5.8,5.8,0,0,0,11,0"/></g></g></g></g></g></svg>