<svg id="Layer_1" data-name="Layer 1" xmlns="http://www.w3.org/2000/svg" xmlns:xlink="http://www.w3.org/1999/xlink" viewBox="0 0 1440 1325"><defs><style>.cls-1{fill:#fff;}.cls-2{mask:url(#mask);}.cls-3{fill:#f5f5f5;}.cls-4{fill:url(#radial-gradient);}</style><mask id="mask" x="-122" y="0" width="1706.13" height="1626.63" maskUnits="userSpaceOnUse"><g id="mask-2"><rect id="path-1" class="cls-1" width="1440" height="1325"/></g></mask><radialGradient id="radial-gradient" cx="470.71" cy="910.9" r="0.57" gradientTransform="matrix(242.82, -310.22, 310.21, 242.81, -395624.35, -73718.05)" gradientUnits="userSpaceOnUse"><stop offset="0" stop-color="#43a047"/><stop offset="0.2" stop-color="#53aa57"/><stop offset="1" stop-color="#81c784"/></radialGradient></defs><title>footer</title><g id="_001" data-name="001"><g id="footer"><g class="cls-2"><g id="Path-4-Copy"><path id="Path-4" class="cls-3" d="M-122,956.2q19.5-329.4,233.8-329.3c271.3,0,295.2,156.1,506.7,63.7,201.4-88,119.8-366.2,419.9-418.8,14.9-2.7,30.8-4.7,47.8-6.2Q1442.8,235,1436.9,0V1365.9H-122Z"/><g id="Mask-2-2" data-name="Mask"><path id="path-4-2" data-name="path-4" class="cls-4" d="M1297.8,1283c-54.8-58-81.2,42.4-148.5,51.1q-67.3,8.7-35.2,161.8-99.6-23.1-111.8-9.6c-12.2,13.6-28.1,63.8,30.5,116.5q58.5,52.8,64.5-11.3,83.4-87.3,119.9-92.1c20.3-2.7,496.4,22.9,332.8-166S1352.6,1341,1297.8,1283Z"/></g></g></g></g></g></svg>