<svg id="Layer_1" data-name="Layer 1" xmlns="http://www.w3.org/2000/svg" viewBox="0 0 81 34"><defs><style>.cls-1{fill:none;}.cls-1,.cls-2{stroke:#d1ead3;stroke-width:2px;}.cls-2{fill:#66bb6a;}</style></defs><title>icon 2</title><g id="_001" data-name="001"><g id="icon-2"><path id="Fill-1" class="cls-1" d="M80,1V33H25V1Z"/><polygon id="Fill-4" class="cls-1" points="1 33 41 33 41 25.8 1 25.8 1 33"/><polygon id="Stroke-5" class="cls-2" points="1 33 41 33 41 25.8 1 25.8 1 33"/><polygon id="Fill-7" class="cls-1" points="9 24.7 48 24.7 48 17.5 9 17.5 9 24.7"/><polygon id="Stroke-8" class="cls-2" points="9 24.7 48 24.7 48 17.5 9 17.5 9 24.7"/><polygon id="Fill-9" class="cls-1" points="17 16.5 57 16.5 57 9.3 17 9.3 17 16.5"/><polygon id="Stroke-10" class="cls-2" points="17 16.5 57 16.5 57 9.3 17 9.3 17 16.5"/><polygon id="Fill-11" class="cls-1" points="25 8.2 64 8.2 64 1 25 1 25 8.2"/><polygon id="Stroke-12" class="cls-2" points="25 8.2 64 8.2 64 1 25 1 25 8.2"/></g></g></svg>