<svg id="Layer_1" data-name="Layer 1" xmlns="http://www.w3.org/2000/svg" viewBox="0 0 77 58"><defs><style>.cls-1{fill:#66bb6a;}.cls-2{fill:none;stroke:#fff;stroke-linecap:round;stroke-linejoin:round;stroke-width:2px;}</style></defs><title>Icon3 Copy</title><g id="_001" data-name="001"><g id="Icon3"><g id="Group-33"><polygon id="Fill-1" class="cls-1" points="54.6 47 57 47 57 12.8 54.6 12.8 54.6 47"/><g id="Group-32"><path id="Fill-2" class="cls-1" d="M75.3,7.1H63.8a8.7,8.7,0,0,0-8.7,8.7v3.3h.1a8.6,8.6,0,0,1,8.6-8H75.2c0-.2.1-.5.1-.7Z"/><path id="Stroke-4" class="cls-2" d="M75.3,7.1H63.8a8.7,8.7,0,0,0-8.7,8.7v3.3h.1a8.6,8.6,0,0,1,8.6-8H75.2c0-.2.1-.5.1-.7Z"/><path id="Fill-6" class="cls-1" d="M55.2,19.1H66.5a8.6,8.6,0,0,0,8.7-8H63.8a8.6,8.6,0,0,0-8.6,8"/><path id="Stroke-8" class="cls-2" d="M55.2,19.1H66.5a8.6,8.6,0,0,0,8.7-8H63.8A8.6,8.6,0,0,0,55.2,19.1Z"/><path id="Fill-10" class="cls-1" d="M55.1,13.1H43.7A8.7,8.7,0,0,1,35,4.4V1h.1a8.6,8.6,0,0,0,8.6,8.1H55.1v4Z"/><path id="Stroke-12" class="cls-2" d="M55.1,13.1H43.7A8.7,8.7,0,0,1,35,4.4V1h.1a8.6,8.6,0,0,0,8.6,8.1H55.1v4Z"/><path id="Fill-14" class="cls-1" d="M35.1,1H46.4a8.8,8.8,0,0,1,8.7,8.1H43.7A8.6,8.6,0,0,1,35.1,1"/><path id="Stroke-16" class="cls-2" d="M35.1,1H46.4a8.8,8.8,0,0,1,8.7,8.1H43.7A8.6,8.6,0,0,1,35.1,1Z"/><path id="Fill-18" class="cls-1" d="M57.4,36.3h0a5.6,5.6,0,0,0-5-5.6L37.2,28.8,1,57H29l8.2-10.6"/><path id="Stroke-22" class="cls-2" d="M57.4,36.3h0a5.6,5.6,0,0,0-5-5.6L39.4,29a5.4,5.4,0,0,0-3.9,1.1L1,57"/><path id="Fill-24" class="cls-1" d="M67,28.8l-4.2.5a3,3,0,0,0-1.5.5l-4.7,2.8V39H61Z"/><path id="Stroke-26" class="cls-2" d="M67,28.8l-4.2.5a3,3,0,0,0-1.5.5l-4.7,2.8V39H61Z"/><g id="Group-31"><path id="Fill-28" class="cls-1" d="M44.8,36.3H59.9l8.6-8.6a2.7,2.7,0,0,1,3.3-.5L75,28.8,59.9,46.4H37.2L29,57"/><path id="Stroke-30" class="cls-2" d="M44.8,36.3H59.9l8.6-8.6a2.7,2.7,0,0,1,3.3-.5L75,28.8,59.9,46.4H37.2L29,57"/></g></g></g></g></g></svg>