<svg id="Layer_1" data-name="Layer 1" xmlns="http://www.w3.org/2000/svg" xmlns:xlink="http://www.w3.org/1999/xlink" viewBox="0 0 192 605"><defs><style>.cls-1{fill:#fff;}.cls-2{mask:url(#mask);}.cls-3{fill:url(#radial-gradient);}.cls-4{fill:url(#radial-gradient-2);}.cls-5{mask:url(#mask-2-2);}.cls-6{opacity:0.62;isolation:isolate;fill:url(#radial-gradient-3);}</style><mask id="mask" x="-304.55" y="-45.41" width="496.55" height="703.09" maskUnits="userSpaceOnUse"><g id="mask-2"><rect id="path-1" class="cls-1" y="0.8" width="192" height="604"/></g></mask><radialGradient id="radial-gradient" cx="-152.71" cy="553.35" r="0.91" gradientTransform="matrix(-192.66, 203.18, 203.18, 192.66, -141741.21, -75292.08)" gradientUnits="userSpaceOnUse"><stop offset="0" stop-color="#f7f7f7"/><stop offset="0.23" stop-color="#c3dea5"/><stop offset="0.68" stop-color="#9ec872"/><stop offset="1" stop-color="#7cb342"/></radialGradient><radialGradient id="radial-gradient-2" cx="-152.05" cy="552.33" r="0.56" gradientTransform="matrix(321.1, -309.95, -309.95, -321.1, 219903.35, 130565.99)" gradientUnits="userSpaceOnUse"><stop offset="0" stop-color="#43a047"/><stop offset="0.2" stop-color="#53aa57"/><stop offset="1" stop-color="#81c784"/></radialGradient><mask id="mask-2-2" x="-368.19" y="-53.23" width="589.12" height="654.67" maskUnits="userSpaceOnUse"><g id="mask-6"><path id="path-5" class="cls-1" d="M-21.2,138.9C68.9,131.7,15,234.5,65.1,292q50.1,57.5-93,160.2Q73.5,507.3,73.5,527.7c0,20.3-24.7,73.7-114,73.7q-89.2,0-45.7-57.5-4-134.4-31.2-165.7C-132.4,360.9-552.6,27-271.7-7.4S-111.2,146.1-21.2,138.9Z"/></g></mask><radialGradient id="radial-gradient-3" cx="-152.22" cy="552.65" r="0.69" gradientTransform="matrix(325.55, 187.94, 187.94, -325.55, -54333.68, 208812.65)" gradientUnits="userSpaceOnUse"><stop offset="0" stop-color="#43a047"/><stop offset="0.76" stop-color="#6cba6f" stop-opacity="0.46"/><stop offset="1" stop-color="#5cb060" stop-opacity="0.81"/><stop offset="1" stop-color="#81c784" stop-opacity="0"/></radialGradient></defs><title>side img</title><g id="_001" data-name="001"><g id="side-img"><g class="cls-2"><g id="Group-4"><path id="Combined-Shape" class="cls-3" d="M139.7,425.2c-15,38.7-37.9,82.4-72.9,122.3h0L7,553.7s21.1,15.6,31.5,22.8C.6,610.9-48.2,640.2-111.2,657.7c11.5-16.1,96-133.7,152.5-207.1a381.5,381.5,0,0,1,50.9-16.9C118.7,427,136.2,425.5,139.7,425.2ZM-51,492.7c.8,5.3,3.3,20.5,6.5,34.3s5.3,21.2,6.1,24c-35.1,47.9-65.9,90.8-74.6,102.9C-108.7,635.3-90.3,562.2-51,492.7ZM162.6,316.8c-14,11.8-64,55.5-115.2,121.1-24.1,30.9-54.8,72.2-83,110.6-1.1-3.8-3-10.9-5.5-21.6-3.9-16.9-6.7-35.9-6.7-36h0l-1.4.3a394,394,0,0,1,32.3-48.6C44.8,363.8,139.8,325.2,162.6,316.8Zm4.4.3c-1.1,10.6-6.5,53.7-26.8,106.7h0v-1.4s-18.8.9-48.8,8.6a380.1,380.1,0,0,0-46.5,15.1c1.6-2.2,3.3-4.3,4.9-6.4C104.5,369.6,157.9,324.6,167,317.1Z"/><g id="Mask-3" data-name="Mask"><path id="path-5-2" data-name="path-5" class="cls-4" d="M51.4,261.9c71.7,54.9-37.1,95.3-38.3,171.4q-1.2,76.2-176.4,56.9,38.6,108.8,24.9,123.9c-13.6,15.1-67.7,38.3-134.1-21.4q-66.3-59.9,4.6-73.4,86.8-102.6,87.7-144c.4-22.9-88.5-552.2,143.3-389.8S-20.3,206.9,51.4,261.9Z"/></g><g class="cls-5"><path id="Path-3" class="cls-6" d="M44.9,463.5C-73.9,480-201.1,437.2-55.5,317.7S-2,143.7,53.7,52.2-26.2-96.9,144.4-11.2,163.8,447,44.9,463.5Z"/></g></g></g></g></g></svg>