<svg id="Capa_1" enable-background="new 0 0 512.006 512.006" height="512" viewBox="0 0 512.006 512.006" width="512" xmlns="http://www.w3.org/2000/svg"><g><path d="m510.861 9.286c.27.66.5 1.34.68 2.03-.18-.69-.4-1.37-.68-2.03zm-1.8-3.191c.42.57.8 1.17 1.14 1.79-.33-.619-.71-1.219-1.14-1.79zm2.04 16.02-13.66-7.55-7.65-13.56c-290.42 48.577-275.06 45.493-290.79 49.84l-12.89 10.1-17.1.59c-.191 0-28.115 11.528-54.99 34.88-94.848 82.467-96.698 226.475-12.076 314.291 2.019 2.096 4.088 4.159 6.206 6.189 51.14 48.706 402.95-394.78 402.95-394.78z" fill="#8cd96b"/><path d="m479.441 233.006-6.99 16.17 2.49 13.82c0 .1.033-.21-4.45 29.63-20.72 137.671-162.054 219.754-290.79 169.74-1.893-.653-10.795-4.382-14.25-6.11-24.114-11.211-47.698-28.635-63.83-45.87l395.82-395.82 13.66 7.55z" fill="#5ab267"/><path d="m136.373 354.42-131.979 131.979c-5.858 5.858-5.858 15.355 0 21.213 5.857 5.858 15.355 5.859 21.213 0l125.596-125.596c-7.376-6.764-8.324-19.985-14.83-27.596z" fill="#fed843"/><path d="m25.607 507.612 127.894-127.894c-3.687-3.381-6.562-7.579-10.037-11.176l-139.07 139.07c5.857 5.858 15.356 5.859 21.213 0z" fill="#fabe2c"/><path d="m474.941 263.006 4.503-30h-179.23c291.734-291.734 43.525-43.525 210.888-210.888l.733-4.886c1.513-10.08-7.273-18.704-17.309-17.021l-4.736.792-138.79 138.79v-44.787c0-8.284-6.716-15-15-15s-15 6.716-15 15v74.787c-3.317 3.317-113.039 113.039-122 122v-240.951c-10.272 2.838-20.296 6.416-30 10.696v260.255l-77.41 77.41c6.425 7.684 13.368 14.918 20.787 21.639l157.836-157.836z" fill="#5ab267"/><path d="m112.378 420.842 157.836-157.836h204.728l4.503-30h-179.231c291.734-291.734 43.525-43.525 210.888-210.888l.733-4.886c.707-4.708-.869-9.465-4.232-12.828l-405.985 405.985c3.464 3.607 7.053 7.094 10.76 10.453z" fill="#288c64"/></g></svg>